<svg width="321px" height="320px" viewBox="0 0 321 320" version="1.1" xmlns="http://www.w3.org/2000/svg" xmlns:xlink="http://www.w3.org/1999/xlink">
	<g transform="translate(0.000000, -1.000000)">
		<g transform="translate(160.500000, 160.959472) scale(1, -1) rotate(0.000000) translate(-160.500000, -160.959472) translate(0.000000, 0.959472)">
		<path d="M160.757265,0 C72.4018,0 0.777789,71.6240107 0.777789,159.979475 C0.777789,248.335473 72.4018,319.959471 160.757265,319.959471 C249.113262,319.959471 320.737261,248.335473 320.737261,159.979475 C320.737261,71.6240107 249.113262,0 160.757265,0 L160.757265,0 L160.757265,0 Z M40.773134,160.644808 C40.773134,94.7478768 94.193933,41.3270781 160.091931,41.3270781 C225.989263,41.3270781 279.410595,94.7478768 279.410595,160.644808 C279.410595,226.54214 225.989263,279.963472 160.091931,279.963472 C94.193933,279.963472 40.773134,226.54214 40.773134,160.644808 L40.773134,160.644808 Z M180.434597,127.983876 C179.075931,126.360409 177.038597,125.316676 174.755931,125.316676 C174.531931,125.316676 174.309264,125.330143 174.089264,125.350543 C173.711931,125.391209 173.505264,125.420809 173.301264,125.461476 C173.047931,125.515609 172.859931,125.565609 172.674598,125.622409 C172.317264,125.735476 172.158598,125.792143 172.003931,125.855743 C171.641264,126.014009 171.513264,126.074943 171.386598,126.140676 C171.041264,126.331209 170.950598,126.387476 170.861264,126.444276 C170.711931,126.539609 170.563931,126.639076 170.421264,126.745343 C170.142598,126.955743 170.045264,127.037476 169.947931,127.121343 C169.653264,127.386409 169.465264,127.576543 169.286598,127.775476 C168.947931,128.163076 168.673264,128.541076 168.435931,128.944276 L160.115931,141.060809 L151.799931,128.944276 C150.494598,126.790676 148.135932,125.316676 145.425265,125.316676 C142.705265,125.316676 140.334598,126.802143 139.069265,129.003076 L102.696599,177.027475 C101.501266,178.334141 100.765266,180.066141 100.765266,181.978141 C100.765266,186.026141 104.048599,189.310141 108.096999,189.310141 C110.716866,189.310141 113.011132,187.930141 114.308466,185.860808 L145.010598,144.742142 L153.653265,157.495475 C154.898598,159.768809 157.315931,161.312808 160.091931,161.312808 C162.631931,161.312808 164.871931,160.018142 166.186598,158.054142 L175.099931,144.794142 L223.269263,207.298141 C224.578596,209.308807 226.838596,210.639474 229.41593,210.639474 C233.465263,210.639474 236.746596,207.356807 236.746596,203.308807 C236.746596,201.539474 236.122596,199.918141 235.079929,198.652808 L180.434597,127.983876 L180.434597,127.983876 Z"></path>
		</g>
	</g>
</svg>